Coordinates
version=1
nRows=17
nColumns=38
inDegrees=no

Units are S.I. units (second, meters, Newtons, ...)
If the header above contains a line with 'inDegrees', this indicates whether rotational values are in degrees (yes) or radians (no).

endheader
time	pelvis_tilt	pelvis_list	pelvis_rotation	pelvis_tx	pelvis_ty	pelvis_tz	hip_flexion_r	hip_adduction_r	hip_rotation_r	knee_angle_r	ankle_angle_r	subtalar_angle_r	mtp_angle_r	hip_flexion_l	hip_adduction_l	hip_rotation_l	knee_angle_l	ankle_angle_l	subtalar_angle_l	mtp_angle_l	lumbar_extension	lumbar_bending	lumbar_rotation	arm_flex_r	arm_add_r	arm_rot_r	elbow_flex_r	pro_sup_r	wrist_flex_r	wrist_dev_r	arm_flex_l	arm_add_l	arm_rot_l	elbow_flex_l	pro_sup_l	wrist_flex_l	wrist_dev_l
8.52	2.4546	1.42574	-0.740168	0.723138	1.1566	0.94541	0.0416936	0.0626701	-0.342679	0.225755	0.0170352	0	0	-0.363056	-0.246747	-0.28044	0.462161	-0.152087	0	0	-0.669333	0.139164	-0.0185815	0.544537	-0.800016	1.03867	1.5069	0.829805	0	0	0.201147	-0.621866	0.394004	1.65934	1.1977	0	0
8.53	2.45158	1.42794	-0.745107	0.725678	1.16272	0.946403	0.0285651	0.0678187	-0.332709	0.20871	0.0143665	0	0	-0.345623	-0.250005	-0.27724	0.495201	-0.182098	0	0	-0.66719	0.1331	-0.0140769	0.526316	-0.793495	1.03261	1.50616	0.840009	0	0	0.182827	-0.623314	0.388817	1.65866	1.20673	0	0
8.54	2.45622	1.42944	-0.75788	0.72819	1.16872	0.947557	0.0136973	0.0726328	-0.322371	0.19067	0.011152	0	0	-0.329054	-0.25225	-0.273434	0.527886	-0.212612	0	0	-0.665751	0.126545	-0.0103769	0.511508	-0.785964	1.03086	1.50296	0.848775	0	0	0.164271	-0.625213	0.382005	1.65945	1.21463	0	0
8.55	2.45992	1.43116	-0.76987	0.730709	1.17464	0.948721	-0.00139532	0.0774724	-0.311063	0.171448	0.00716092	0	0	-0.311447	-0.254139	-0.269603	0.561631	-0.243384	0	0	-0.663191	0.119618	-0.00691759	0.497783	-0.777789	1.03069	1.4973	0.857641	0	0	0.146068	-0.627096	0.374635	1.65961	1.22202	0	0
8.56	2.46407	1.43242	-0.782776	0.733197	1.18049	0.949896	-0.0173986	0.0824211	-0.298482	0.151099	0.00228498	0	0	-0.294117	-0.255907	-0.267027	0.595932	-0.271585	0	0	-0.660304	0.112543	-0.00277445	0.483698	-0.769751	1.02947	1.49089	0.867568	0	0	0.12872	-0.629121	0.367999	1.65812	1.22882	0	0
8.57	2.47203	1.43256	-0.800045	0.735616	1.18631	0.951094	-0.0359984	0.0879099	-0.283099	0.127959	-0.00472428	0	0	-0.279197	-0.257325	-0.266622	0.628122	-0.289191	0	0	-0.657928	0.105473	0.00253266	0.468616	-0.762111	1.02605	1.48467	0.878811	0	0	0.112721	-0.631251	0.363415	1.65462	1.23424	0	0
8.58	2.48407	1.43234	-0.822324	0.737989	1.19204	0.952242	-0.054329	0.0922434	-0.268672	0.107093	-0.0102814	0	0	-0.266585	-0.257827	-0.270499	0.657096	-0.292728	0	0	-0.65562	0.097796	0.00903003	0.453649	-0.755205	1.02249	1.47952	0.886465	0	0	0.0982801	-0.633365	0.361296	1.64947	1.23709	0	0
8.59	2.50045	1.43222	-0.849786	0.740411	1.1976	0.953374	-0.0723781	0.0954372	-0.253373	0.0872316	-0.0159267	0	0	-0.254991	-0.257596	-0.2792	0.68395	-0.288124	0	0	-0.653411	0.0890098	0.0165525	0.438086	-0.748116	1.01768	1.47415	0.894422	0	0	0.0859702	-0.63578	0.361818	1.6435	1.23918	0	0
8.6	2.54288	1.4338	-0.901545	0.744008	1.20307	0.954499	-0.0900848	0.0971853	-0.234116	0.0702217	-0.0226616	0	0	-0.245347	-0.267196	-0.295647	0.706312	-0.273266	0	0	-0.65145	0.0751073	0.0225213	0.421622	-0.739745	1.01237	1.4687	0.903569	0	0	0.0763706	-0.639636	0.363816	1.63719	1.2406	0	0
8.61	2.57576	1.434	-0.946366	0.746537	1.20817	0.955635	-0.107532	0.0969035	-0.217075	0.0529681	-0.0277911	0	0	-0.235405	-0.265819	-0.305501	0.729746	-0.258748	0	0	-0.649863	0.0637193	0.0302772	0.407133	-0.731932	1.00804	1.46153	0.913962	0	0	0.0673729	-0.642263	0.366417	1.63065	1.24117	0	0
8.62	2.61492	1.43472	-0.995678	0.748851	1.21359	0.956724	-0.12582	0.0951296	-0.202282	0.0346673	-0.0325734	0	0	-0.22602	-0.262895	-0.311921	0.749553	-0.236944	0	0	-0.646963	0.052361	0.0364105	0.390614	-0.722976	1.00233	1.45198	0.925382	0	0	0.0583965	-0.644143	0.368779	1.62312	1.24106	0	0
8.63	2.65778	1.43551	-1.04797	0.751001	1.21871	0.95779	-0.142825	0.092098	-0.189256	0.0181645	-0.036485	0	0	-0.21634	-0.258837	-0.316221	0.766748	-0.209639	0	0	-0.644202	0.0410714	0.0418544	0.374108	-0.71398	0.99535	1.44202	0.937331	0	0	0.0498735	-0.645726	0.370184	1.61636	1.2404	0	0
8.64	2.70176	1.43691	-1.10105	0.752971	1.22352	0.958767	-0.157138	0.0877499	-0.17767	0.00462137	-0.0397197	0	0	-0.205684	-0.253591	-0.319512	0.780863	-0.181937	0	0	-0.640928	0.0296924	0.0468363	0.356765	-0.704853	0.985305	1.4323	0.949864	0	0	0.0416453	-0.647077	0.371194	1.61028	1.2385	0	0
8.65	2.74491	1.43828	-1.15296	0.754678	1.22804	0.959712	-0.166391	0.0821567	-0.170984	0	-0.041933	0	0	-0.194423	-0.247513	-0.32168	0.791917	-0.157386	0	0	-0.637454	0.0188527	0.0515079	0.338665	-0.695381	0.972521	1.4232	0.963048	0	0	0.0338377	-0.648331	0.373026	1.6041	1.23336	0	0
8.66	2.78656	1.43924	-1.20208	0.756259	1.23233	0.960641	-0.173283	0.0763628	-0.167129	0	-0.0449181	0	0	-0.182619	-0.241516	-0.322472	0.800486	-0.136199	0	0	-0.634098	0.00923978	0.0553899	0.320067	-0.685641	0.957408	1.41529	0.981317	0	0	0.0267989	-0.649386	0.37622	1.59767	1.22007	0	0
8.67	2.82812	1.43989	-1.24887	0.757544	1.2365	0.961499	-0.180495	0.0709778	-0.163478	0	-0.0439048	0	0	-0.169904	-0.235456	-0.321237	0.806625	-0.117597	0	0	-0.630873	0.00113643	0.058545	0.300066	-0.676351	0.939014	1.40832	1.00334	0	0	0.0222086	-0.650145	0.382667	1.59051	1.19568	0	0
8.68	3.06896	1.41363	-1.51524	0.758927	1.24272	0.966652	-0.222812	0.0331676	-0.149116	0	-0.0448295	0	0	-0.217346	-0.187979	-0.342039	0.765704	-0.117601	0	0	-0.65717	-0.0372135	0.0620974	0.291745	-0.669221	0.942814	1.39751	0.991464	0	0	0.010367	-0.64451	0.37802	1.57915	1.21845	0	0
